<svg width="157" height="48" viewBox="0 0 157 48" fill="none" xmlns="http://www.w3.org/2000/svg">
<rect width="157" height="48" fill="#E6AD39"/>
<path d="M19.12 29V19.06H20.688V27.614H26.022V29H19.12ZM30.117 29.14C29.5477 29.14 29.0297 29.042 28.563 28.846C28.0963 28.6407 27.695 28.3653 27.359 28.02C27.0323 27.6747 26.7757 27.2733 26.589 26.816C26.4117 26.3587 26.323 25.8733 26.323 25.36C26.323 24.8467 26.4117 24.3613 26.589 23.904C26.7757 23.4373 27.0323 23.0313 27.359 22.686C27.695 22.3313 28.0963 22.056 28.563 21.86C29.0297 21.6547 29.5523 21.552 30.131 21.552C30.7003 21.552 31.2137 21.6547 31.671 21.86C32.1377 22.0653 32.5343 22.3407 32.861 22.686C33.1877 23.022 33.435 23.4187 33.603 23.876C33.7803 24.324 33.869 24.7953 33.869 25.29C33.869 25.402 33.8643 25.5093 33.855 25.612C33.8457 25.7053 33.8363 25.7847 33.827 25.85H27.961C27.989 26.1767 28.0637 26.4707 28.185 26.732C28.3157 26.9933 28.479 27.222 28.675 27.418C28.8803 27.6047 29.109 27.7493 29.361 27.852C29.6223 27.9547 29.893 28.006 30.173 28.006C30.3783 28.006 30.579 27.9827 30.775 27.936C30.9803 27.88 31.167 27.8053 31.335 27.712C31.503 27.6093 31.6523 27.488 31.783 27.348C31.9137 27.208 32.0163 27.054 32.091 26.886L33.407 27.264C33.155 27.8147 32.735 28.2673 32.147 28.622C31.5683 28.9673 30.8917 29.14 30.117 29.14ZM32.343 24.786C32.315 24.478 32.2357 24.1933 32.105 23.932C31.9837 23.6707 31.825 23.4513 31.629 23.274C31.433 23.0873 31.2043 22.9427 30.943 22.84C30.6817 22.7373 30.4063 22.686 30.117 22.686C29.8277 22.686 29.5523 22.7373 29.291 22.84C29.039 22.9427 28.815 23.0873 28.619 23.274C28.423 23.4513 28.2643 23.6707 28.143 23.932C28.0217 24.1933 27.947 24.478 27.919 24.786H32.343ZM39.1445 28.622C38.9485 28.7153 38.6778 28.8227 38.3325 28.944C37.9872 29.056 37.6185 29.112 37.2265 29.112C36.9838 29.112 36.7552 29.0793 36.5405 29.014C36.3258 28.9487 36.1345 28.8507 35.9665 28.72C35.8078 28.5893 35.6818 28.4213 35.5885 28.216C35.4952 28.0013 35.4485 27.7447 35.4485 27.446V22.868H34.4825V21.678H35.4485V19.27H36.9885V21.678H38.5845V22.868H36.9885V26.956C37.0072 27.2173 37.0865 27.4087 37.2265 27.53C37.3758 27.642 37.5578 27.698 37.7725 27.698C37.9872 27.698 38.1925 27.6607 38.3885 27.586C38.5845 27.5113 38.7292 27.4507 38.8225 27.404L39.1445 28.622ZM40.2811 22.126L40.5751 20.474H40.0851V18.738H41.5971V20.488L41.1351 22.126H40.2811ZM45.7559 29.14C45.1679 29.14 44.5799 29.0467 43.9919 28.86C43.4132 28.664 42.9139 28.3887 42.4939 28.034L43.1099 27.054C43.5485 27.3713 43.9825 27.614 44.4119 27.782C44.8412 27.9407 45.2799 28.02 45.7279 28.02C46.1852 28.02 46.5445 27.9313 46.8059 27.754C47.0765 27.5767 47.2119 27.3247 47.2119 26.998C47.2119 26.69 47.0625 26.466 46.7639 26.326C46.4652 26.186 45.9985 26.032 45.3639 25.864C44.9065 25.7427 44.5145 25.626 44.1879 25.514C43.8612 25.402 43.5952 25.2713 43.3899 25.122C43.1845 24.9727 43.0352 24.8 42.9419 24.604C42.8485 24.408 42.8019 24.17 42.8019 23.89C42.8019 23.5167 42.8719 23.1853 43.0119 22.896C43.1612 22.6067 43.3619 22.364 43.6139 22.168C43.8752 21.9627 44.1785 21.8087 44.5239 21.706C44.8692 21.6033 45.2425 21.552 45.6439 21.552C46.1945 21.552 46.7079 21.636 47.1839 21.804C47.6599 21.972 48.0845 22.2147 48.4579 22.532L47.7999 23.456C47.1185 22.9147 46.3952 22.644 45.6299 22.644C45.2379 22.644 44.9065 22.728 44.6359 22.896C44.3745 23.0547 44.2439 23.3113 44.2439 23.666C44.2439 23.8153 44.2719 23.9413 44.3279 24.044C44.3839 24.1467 44.4725 24.2353 44.5939 24.31C44.7245 24.3847 44.8879 24.4547 45.0839 24.52C45.2892 24.576 45.5412 24.6413 45.8399 24.716C46.3345 24.8373 46.7592 24.9587 47.1139 25.08C47.4779 25.2013 47.7765 25.346 48.0099 25.514C48.2432 25.6727 48.4159 25.864 48.5279 26.088C48.6399 26.3027 48.6959 26.564 48.6959 26.872C48.6959 27.572 48.4299 28.1273 47.8979 28.538C47.3752 28.9393 46.6612 29.14 45.7559 29.14ZM60.6542 27.768C59.8142 28.636 58.8482 29.07 57.7562 29.07C57.0935 29.07 56.4775 28.9347 55.9082 28.664C55.3388 28.384 54.8442 28.0107 54.4242 27.544C54.0042 27.0773 53.6728 26.536 53.4302 25.92C53.1968 25.304 53.0802 24.66 53.0802 23.988C53.0802 23.316 53.1968 22.6767 53.4302 22.07C53.6728 21.4633 54.0042 20.9313 54.4242 20.474C54.8442 20.0167 55.3435 19.6573 55.9222 19.396C56.5008 19.1253 57.1308 18.99 57.8122 18.99C58.7642 18.99 59.5622 19.1907 60.2062 19.592C60.8502 19.984 61.3355 20.5067 61.6622 21.16L60.4582 22.028C60.1875 21.4867 59.8142 21.0807 59.3382 20.81C58.8622 20.5393 58.3395 20.404 57.7702 20.404C57.3035 20.404 56.8788 20.5067 56.4962 20.712C56.1135 20.908 55.7868 21.174 55.5162 21.51C55.2455 21.8367 55.0355 22.2193 54.8862 22.658C54.7462 23.0967 54.6762 23.554 54.6762 24.03C54.6762 24.534 54.7555 25.0053 54.9142 25.444C55.0822 25.8827 55.3062 26.2653 55.5862 26.592C55.8755 26.9187 56.2162 27.18 56.6082 27.376C57.0002 27.5627 57.4248 27.656 57.8822 27.656C58.3862 27.656 58.8668 27.5393 59.3242 27.306C59.7908 27.0727 60.2342 26.704 60.6542 26.2V25.136H58.5682V23.974H61.9702V29H60.6542V27.768ZM66.8807 29.14C66.3113 29.14 65.7933 29.042 65.3267 28.846C64.86 28.6407 64.4587 28.3653 64.1227 28.02C63.796 27.6747 63.5393 27.2733 63.3527 26.816C63.1753 26.3587 63.0867 25.8733 63.0867 25.36C63.0867 24.8467 63.1753 24.3613 63.3527 23.904C63.5393 23.4373 63.796 23.0313 64.1227 22.686C64.4587 22.3313 64.86 22.056 65.3267 21.86C65.7933 21.6547 66.316 21.552 66.8947 21.552C67.464 21.552 67.9773 21.6547 68.4347 21.86C68.9013 22.0653 69.298 22.3407 69.6247 22.686C69.9513 23.022 70.1987 23.4187 70.3667 23.876C70.544 24.324 70.6327 24.7953 70.6327 25.29C70.6327 25.402 70.628 25.5093 70.6187 25.612C70.6093 25.7053 70.6 25.7847 70.5907 25.85H64.7247C64.7527 26.1767 64.8273 26.4707 64.9487 26.732C65.0793 26.9933 65.2427 27.222 65.4387 27.418C65.644 27.6047 65.8727 27.7493 66.1247 27.852C66.386 27.9547 66.6567 28.006 66.9367 28.006C67.142 28.006 67.3427 27.9827 67.5387 27.936C67.744 27.88 67.9307 27.8053 68.0987 27.712C68.2667 27.6093 68.416 27.488 68.5467 27.348C68.6773 27.208 68.78 27.054 68.8547 26.886L70.1707 27.264C69.9187 27.8147 69.4987 28.2673 68.9107 28.622C68.332 28.9673 67.6553 29.14 66.8807 29.14ZM69.1067 24.786C69.0787 24.478 68.9993 24.1933 68.8687 23.932C68.7473 23.6707 68.5887 23.4513 68.3927 23.274C68.1967 23.0873 67.968 22.9427 67.7067 22.84C67.4453 22.7373 67.17 22.686 66.8807 22.686C66.5913 22.686 66.316 22.7373 66.0547 22.84C65.8027 22.9427 65.5787 23.0873 65.3827 23.274C65.1867 23.4513 65.028 23.6707 64.9067 23.932C64.7853 24.1933 64.7107 24.478 64.6827 24.786H69.1067ZM75.9082 28.622C75.7122 28.7153 75.4415 28.8227 75.0962 28.944C74.7508 29.056 74.3822 29.112 73.9902 29.112C73.7475 29.112 73.5188 29.0793 73.3042 29.014C73.0895 28.9487 72.8982 28.8507 72.7302 28.72C72.5715 28.5893 72.4455 28.4213 72.3522 28.216C72.2588 28.0013 72.2122 27.7447 72.2122 27.446V22.868H71.2462V21.678H72.2122V19.27H73.7522V21.678H75.3482V22.868H73.7522V26.956C73.7708 27.2173 73.8502 27.4087 73.9902 27.53C74.1395 27.642 74.3215 27.698 74.5362 27.698C74.7508 27.698 74.9562 27.6607 75.1522 27.586C75.3482 27.5113 75.4928 27.4507 75.5862 27.404L75.9082 28.622ZM80.6298 29V19.06H82.1978V29H80.6298ZM90.8142 29H89.2742V24.898C89.2742 24.2073 89.1622 23.708 88.9382 23.4C88.7236 23.0827 88.4016 22.924 87.9722 22.924C87.7482 22.924 87.5242 22.966 87.3002 23.05C87.0762 23.134 86.8662 23.2553 86.6702 23.414C86.4742 23.5633 86.2969 23.7453 86.1382 23.96C85.9889 24.1653 85.8722 24.394 85.7882 24.646V29H84.2482V21.678H85.6482V23.148C85.9282 22.6533 86.3342 22.266 86.8662 21.986C87.3982 21.6967 87.9862 21.552 88.6302 21.552C89.0689 21.552 89.4282 21.6313 89.7082 21.79C89.9882 21.9487 90.2076 22.168 90.3662 22.448C90.5342 22.7187 90.6509 23.036 90.7162 23.4C90.7816 23.7547 90.8142 24.1327 90.8142 24.534V29ZM103.154 20.446H99.8502V29H98.2682V20.446H94.9502V19.06H103.154V20.446ZM105.982 29.14C105.403 29.14 104.88 29.0373 104.414 28.832C103.956 28.6267 103.564 28.3513 103.238 28.006C102.911 27.6607 102.659 27.2593 102.482 26.802C102.304 26.3353 102.216 25.85 102.216 25.346C102.216 24.842 102.304 24.3613 102.482 23.904C102.659 23.4373 102.911 23.0313 103.238 22.686C103.574 22.3407 103.97 22.0653 104.428 21.86C104.894 21.6547 105.412 21.552 105.982 21.552C106.551 21.552 107.064 21.6547 107.522 21.86C107.988 22.0653 108.385 22.3407 108.712 22.686C109.048 23.0313 109.304 23.4373 109.482 23.904C109.659 24.3613 109.748 24.842 109.748 25.346C109.748 25.85 109.659 26.3353 109.482 26.802C109.304 27.2593 109.048 27.6607 108.712 28.006C108.385 28.3513 107.988 28.6267 107.522 28.832C107.064 29.0373 106.551 29.14 105.982 29.14ZM103.798 25.36C103.798 25.7147 103.854 26.0413 103.966 26.34C104.078 26.6387 104.232 26.9 104.428 27.124C104.624 27.3387 104.852 27.5113 105.114 27.642C105.384 27.7633 105.674 27.824 105.982 27.824C106.29 27.824 106.574 27.7633 106.836 27.642C107.106 27.5113 107.34 27.334 107.536 27.11C107.732 26.886 107.886 26.6247 107.998 26.326C108.11 26.0273 108.166 25.7007 108.166 25.346C108.166 25.0007 108.11 24.6787 107.998 24.38C107.886 24.072 107.732 23.806 107.536 23.582C107.34 23.358 107.106 23.1853 106.836 23.064C106.574 22.9333 106.29 22.868 105.982 22.868C105.683 22.868 105.398 22.9333 105.128 23.064C104.866 23.1947 104.638 23.372 104.442 23.596C104.246 23.82 104.087 24.086 103.966 24.394C103.854 24.6927 103.798 25.0147 103.798 25.36ZM113.367 29.14C112.602 29.14 112.023 28.8927 111.631 28.398C111.239 27.894 111.043 27.1473 111.043 26.158V21.678H112.583V25.85C112.583 27.166 113.05 27.824 113.983 27.824C114.422 27.824 114.837 27.6887 115.229 27.418C115.621 27.1473 115.925 26.7553 116.139 26.242V21.678H117.679V27.18C117.679 27.3573 117.707 27.4833 117.763 27.558C117.829 27.6327 117.941 27.6747 118.099 27.684V29C117.941 29.028 117.81 29.0467 117.707 29.056C117.605 29.0653 117.507 29.07 117.413 29.07C117.133 29.07 116.895 28.9953 116.699 28.846C116.503 28.6873 116.401 28.4867 116.391 28.244L116.363 27.516C116.037 28.048 115.612 28.454 115.089 28.734C114.567 29.0047 113.993 29.14 113.367 29.14ZM119.169 25.332C119.169 24.8187 119.257 24.3333 119.435 23.876C119.612 23.4187 119.864 23.0173 120.191 22.672C120.527 22.3267 120.928 22.056 121.395 21.86C121.861 21.6547 122.384 21.552 122.963 21.552C123.719 21.552 124.367 21.72 124.909 22.056C125.459 22.3827 125.87 22.8213 126.141 23.372L124.643 23.848C124.465 23.54 124.227 23.302 123.929 23.134C123.63 22.9567 123.299 22.868 122.935 22.868C122.627 22.868 122.337 22.9287 122.067 23.05C121.805 23.1713 121.577 23.344 121.381 23.568C121.185 23.7827 121.031 24.0393 120.919 24.338C120.807 24.6367 120.751 24.968 120.751 25.332C120.751 25.6867 120.807 26.018 120.919 26.326C121.04 26.6247 121.199 26.886 121.395 27.11C121.6 27.334 121.833 27.5113 122.095 27.642C122.365 27.7633 122.65 27.824 122.949 27.824C123.135 27.824 123.322 27.8007 123.509 27.754C123.695 27.698 123.863 27.6233 124.013 27.53C124.171 27.4367 124.307 27.3293 124.419 27.208C124.54 27.0867 124.629 26.956 124.685 26.816L126.197 27.264C125.954 27.8147 125.548 28.2673 124.979 28.622C124.409 28.9673 123.737 29.14 122.963 29.14C122.393 29.14 121.875 29.0373 121.409 28.832C120.942 28.6267 120.541 28.3513 120.205 28.006C119.878 27.6513 119.621 27.2453 119.435 26.788C119.257 26.3307 119.169 25.8453 119.169 25.332ZM134.031 29H132.491V24.898C132.491 24.226 132.37 23.7313 132.127 23.414C131.894 23.0873 131.553 22.924 131.105 22.924C130.89 22.924 130.676 22.966 130.461 23.05C130.246 23.134 130.041 23.2553 129.845 23.414C129.658 23.5633 129.49 23.7453 129.341 23.96C129.192 24.1653 129.08 24.394 129.005 24.646V29H127.465V18.78H129.005V23.148C129.285 22.644 129.663 22.252 130.139 21.972C130.624 21.692 131.152 21.552 131.721 21.552C132.178 21.552 132.552 21.636 132.841 21.804C133.14 21.9627 133.378 22.1773 133.555 22.448C133.732 22.7187 133.854 23.036 133.919 23.4C133.994 23.7547 134.031 24.1327 134.031 24.534V29ZM136.113 25.458V18.962H137.653V25.458H136.113ZM136.113 29V27.082H137.653V29H136.113Z" fill="#120E05"/>
</svg>
