<svg width="17" height="10" viewBox="0 0 17 10" fill="none" xmlns="http://www.w3.org/2000/svg">
<path d="M15.871 4.38248H2.20782L4.47118 2.09219C4.72373 1.83661 4.72469 1.42125 4.47334 1.16445C4.22198 0.907621 3.81347 0.90667 3.56092 1.16222L0.189819 4.57351C0.189593 4.57371 0.189432 4.57394 0.189238 4.57414C-0.0626652 4.82972 -0.0634717 5.24642 0.189174 5.50286C0.189399 5.50306 0.189561 5.50329 0.189754 5.50348L3.56085 8.91477C3.81337 9.17029 4.22189 9.16941 4.47327 8.91254C4.72463 8.65575 4.72366 8.24039 4.47111 7.9848L2.20782 5.69451H15.871C16.2273 5.69451 16.5162 5.40082 16.5162 5.0385C16.5162 4.67618 16.2273 4.38248 15.871 4.38248Z" fill="#E6AD39"/>
</svg>
