<svg width="33" height="31" viewBox="0 0 33 31" fill="none" xmlns="http://www.w3.org/2000/svg">
<path d="M7.06244 14.2154C3.5252 14.2154 0.657698 11.3479 0.657698 7.81067L0.657698 7.32521C0.657698 4.05608 3.30785 1.40593 6.57698 1.40593C9.84611 1.40593 12.4963 4.05608 12.4963 7.32521L12.4963 14.2154H7.06244Z" stroke="#E6AD39" stroke-width="1.3154"/>
<path d="M7.06247 16.59C3.52521 16.59 0.657698 19.4575 0.657698 22.9948L0.657698 23.4803C0.657698 26.7494 3.30785 29.3996 6.57698 29.3996C9.84611 29.3996 12.4963 26.7494 12.4963 23.4803L12.4963 16.59L7.06247 16.59Z" stroke="#E6AD39" stroke-width="1.3154"/>
<path d="M14.5343 17.1358C14.2195 17.154 13.944 16.9265 13.9024 16.614C13.8544 16.253 14.1352 15.9323 14.4994 15.9323L32.1364 15.9323C32.1866 15.9323 32.2272 15.973 32.2272 16.0231C32.2272 16.0713 32.1897 16.111 32.1417 16.1138L14.5343 17.1358Z" fill="#120E05"/>
<path d="M14.4076 14.8731C14.0785 14.8731 13.8117 14.6063 13.8117 14.2772C13.8117 13.9314 14.1051 13.6582 14.4501 13.6828L28.8645 14.7133C28.9063 14.7163 28.9388 14.7511 28.9388 14.7931C28.9388 14.8373 28.9029 14.8731 28.8588 14.8731L14.4076 14.8731Z" fill="#120E05"/>
</svg>
