<svg width="25" height="22" viewBox="0 0 25 22" fill="none" xmlns="http://www.w3.org/2000/svg">
<path d="M5.0704 9.63383C2.55012 9.63383 0.50704 7.59074 0.50704 5.07047C0.50704 2.5502 2.55012 0.507113 5.0704 0.507113C7.59067 0.507113 9.63376 2.5502 9.63376 5.07047V9.63383L5.0704 9.63383Z" stroke="#E6AD39" stroke-width="1.01408"/>
<path d="M5.0704 11.4083C2.55012 11.4083 0.50704 13.4514 0.50704 15.9717C0.50704 18.492 2.55012 20.5351 5.0704 20.5351C7.59067 20.5351 9.63376 18.492 9.63376 15.9717V11.4083L5.0704 11.4083Z" stroke="#E6AD39" stroke-width="1.01408"/>
<path d="M11.1707 11.7672C10.9465 11.7793 10.7501 11.6181 10.7184 11.3958C10.6811 11.1348 10.8836 10.9013 11.1473 10.9013L24.7798 10.9013C24.8157 10.9013 24.8449 10.9304 24.8449 10.9663C24.8449 11.0009 24.8178 11.0295 24.7833 11.0313L11.1707 11.7672Z" fill="#120E05"/>
<path d="M11.0766 10.1409C10.8398 10.1409 10.6477 9.94884 10.6477 9.71196C10.6477 9.46387 10.8576 9.26752 11.1051 9.284L22.2562 10.0264C22.2863 10.0284 22.3097 10.0534 22.3097 10.0836C22.3097 10.1152 22.284 10.1409 22.2524 10.1409L11.0766 10.1409Z" fill="#120E05"/>
</svg>
