<svg width="204" height="230" viewBox="0 0 204 230" fill="none" xmlns="http://www.w3.org/2000/svg">
<path d="M123.672 59.1985C128.591 40.841 147.46 29.9468 165.817 34.8657C184.175 39.7846 195.069 58.6538 190.15 77.0113C185.231 95.3689 166.362 106.263 148.005 101.344L114.765 92.4377L123.672 59.1985Z" stroke="black" stroke-width="7.64706"/>
<path d="M110.745 55.7349C115.664 37.3774 104.77 18.5082 86.4126 13.5893C68.0551 8.67039 49.1858 19.5646 44.267 37.9221C39.3481 56.2796 50.2422 75.1488 68.5998 80.0677L101.839 88.9741L110.745 55.7349Z" stroke="black" stroke-width="7.64706"/>
<path d="M125.32 116.058C127.695 111.54 128.883 109.28 128.443 107.245C128.282 106.495 127.971 105.785 127.53 105.158C126.333 103.454 123.867 102.793 118.937 101.472C114.904 100.392 112.888 99.8516 111.19 100.468C110.559 100.697 109.973 101.036 109.459 101.468C108.076 102.63 107.536 104.646 106.455 108.679L84.5469 190.441C84.4397 190.841 84.6772 191.253 85.0773 191.36C85.4159 191.451 85.7721 191.295 85.9352 190.984L125.32 116.058Z" fill="black" fill-opacity="0.1"/>
<path d="M117.367 130.74L85.9341 190.983C85.7718 191.294 85.4152 191.45 85.0763 191.36V191.36C84.6767 191.253 84.4396 190.842 84.5467 190.442L106.455 108.679C107.536 104.646 108.076 102.63 109.459 101.468C109.973 101.036 110.559 100.697 111.19 100.468C112.888 99.8516 114.904 100.392 118.937 101.472V101.472C123.867 102.793 126.333 103.454 127.53 105.158C127.971 105.785 128.282 106.495 128.443 107.245C128.883 109.28 127.695 111.54 125.32 116.058L119.853 126.458" stroke="black" stroke-width="1.91176" stroke-linecap="round"/>
<path d="M80.4446 103.917C80.6736 100.9 80.7881 99.391 81.254 98.264C82.3787 95.5435 84.9651 93.7102 87.9045 93.5499C89.1222 93.4835 90.5838 93.8751 93.507 94.6584C95.9809 95.3213 97.2179 95.6527 98.149 96.2166C100.388 97.5728 101.778 99.9799 101.833 102.597C101.856 103.685 101.524 104.922 100.861 107.396L74.0559 207.435C73.9504 207.829 73.5459 208.062 73.1524 207.957C72.8097 207.865 72.5809 207.542 72.6077 207.188L80.4446 103.917Z" fill="black" fill-opacity="0.1"/>
<path d="M90.0922 147.587L74.0559 207.435C73.9504 207.829 73.5459 208.062 73.1524 207.957V207.957C72.8097 207.865 72.5809 207.542 72.6077 207.188L80.4446 103.917C80.6736 100.9 80.7881 99.391 81.254 98.264C82.3787 95.5435 84.9651 93.7102 87.9045 93.5499C89.1222 93.4835 90.5838 93.8751 93.507 94.6584V94.6584C95.9809 95.3213 97.2179 95.6527 98.149 96.2166C100.388 97.5728 101.778 99.9799 101.833 102.597C101.856 103.685 101.524 104.922 100.861 107.396L92.1846 139.778M90.9356 144.439L91.183 143.516" stroke="black" stroke-width="1.91176" stroke-linecap="round"/>
</svg>
