<svg width="41" height="35" viewBox="0 0 41 35" fill="none" xmlns="http://www.w3.org/2000/svg">
<path d="M8.20015 15.5803C4.12421 15.5803 0.820015 12.2761 0.820015 8.20018C0.820015 4.12425 4.12421 0.820049 8.20015 0.820049C12.2761 0.820049 15.5803 4.12425 15.5803 8.20018L15.5803 15.5803H8.20015Z" stroke="#E6AD39" stroke-width="1.64003"/>
<path d="M8.20015 18.4502C4.12421 18.4502 0.820015 21.7544 0.820015 25.8303C0.820015 29.9062 4.12421 33.2104 8.20015 33.2104C12.2761 33.2104 15.5803 29.9062 15.5803 25.8303L15.5803 18.4502L8.20015 18.4502Z" stroke="#E6AD39" stroke-width="1.64003"/>
<path d="M18.0659 19.0305C17.7033 19.0501 17.3858 18.7894 17.3344 18.4299C17.2741 18.0078 17.6017 17.6301 18.0281 17.6301L40.0753 17.6301C40.1334 17.6301 40.1806 17.6772 40.1806 17.7354C40.1806 17.7913 40.1368 17.8375 40.081 17.8405L18.0659 19.0305Z" fill="#120E05"/>
<path d="M17.9138 16.4003C17.5307 16.4003 17.2202 16.0898 17.2202 15.7067C17.2202 15.3054 17.5595 14.9879 17.9599 15.0146L35.994 16.2152C36.0427 16.2184 36.0805 16.2589 36.0805 16.3077C36.0805 16.3588 36.039 16.4003 35.9878 16.4003L17.9138 16.4003Z" fill="#120E05"/>
</svg>
