<svg width="154" height="163" viewBox="0 0 154 163" fill="none" xmlns="http://www.w3.org/2000/svg">
<path d="M100.008 49.7973C106.223 39.031 119.99 35.3422 130.756 41.5581C141.523 47.774 145.211 61.5408 138.996 72.307C132.78 83.0733 119.013 86.7621 108.247 80.5462L88.7527 69.2913L100.008 49.7973Z" stroke="black" stroke-width="5.00217"/>
<path d="M92.4264 45.4203C98.6423 34.6541 94.9535 20.8874 84.1873 14.6715C73.421 8.45556 59.6543 12.1444 53.4384 22.9106C47.2225 33.6769 50.9113 47.4436 61.6775 53.6595L81.1715 64.9144L92.4264 45.4203Z" stroke="black" stroke-width="5.00217"/>
<path d="M91.4226 86.0027C93.6882 83.5499 94.8211 82.3235 94.8881 80.9631C94.9128 80.4619 94.8367 79.9608 94.6643 79.4895C94.1964 78.2104 92.7505 77.3757 89.8588 75.7061C87.4939 74.3407 86.3114 73.658 85.1343 73.7602C84.6966 73.7982 84.269 73.9128 83.871 74.0987C82.8005 74.5987 82.1178 75.7812 80.7524 78.1462L53.0673 126.098C52.9319 126.333 53.0123 126.633 53.2469 126.768C53.4455 126.883 53.697 126.845 53.8526 126.676L91.4226 86.0027Z" fill="black" fill-opacity="0.1"/>
<path d="M83.912 93.9328L53.8522 126.675C53.6969 126.844 53.4451 126.883 53.2463 126.768V126.768C53.012 126.633 52.9317 126.333 53.067 126.099L80.7524 78.1462C82.1178 75.7812 82.8005 74.5987 83.871 74.0987C84.269 73.9128 84.6966 73.7982 85.1343 73.7602C86.3114 73.658 87.4939 74.3407 89.8588 75.7061V75.7061C92.7505 77.3757 94.1964 78.2104 94.6643 79.4895C94.8367 79.9608 94.9128 80.4619 94.8881 80.9631C94.8211 82.3235 93.6882 83.5499 91.4226 86.0027L86.2078 91.6482" stroke="black" stroke-width="1.25054" stroke-linecap="round"/>
<path d="M65.1239 70.7341C65.7795 68.8662 66.1073 67.9323 66.5925 67.2991C67.7637 65.7706 69.7083 65.0501 71.5926 65.4465C72.3733 65.6107 73.2305 66.1056 74.9448 67.0954C76.3958 67.9331 77.1212 68.3519 77.614 68.8658C78.7991 70.1018 79.2697 71.858 78.8613 73.5209C78.6915 74.2124 78.2727 74.9378 77.435 76.3887L43.5616 135.059C43.4284 135.29 43.1332 135.369 42.9024 135.236C42.7014 135.12 42.6115 134.877 42.6884 134.658L65.1239 70.7341Z" fill="black" fill-opacity="0.1"/>
<path d="M63.8264 99.9594L43.5616 135.059C43.4284 135.29 43.1332 135.369 42.9024 135.236V135.236C42.7014 135.12 42.6115 134.877 42.6884 134.658L65.1239 70.7341C65.7795 68.8662 66.1073 67.9323 66.5925 67.2991C67.7637 65.7706 69.7083 65.0501 71.5926 65.4465C72.3733 65.6107 73.2305 66.1056 74.9448 67.0954V67.0954C76.3958 67.9331 77.1212 68.3519 77.614 68.8658C78.7991 70.1018 79.2697 71.858 78.8613 73.5209C78.6915 74.2124 78.2727 74.9378 77.435 76.3887L66.4706 95.3796M64.8922 98.1135L65.2048 97.572" stroke="black" stroke-width="1.25054" stroke-linecap="round"/>
</svg>
