<svg width="181" height="210" viewBox="0 0 181 210" fill="none" xmlns="http://www.w3.org/2000/svg">
<path d="M110.476 52.7067C114.441 36.8159 130.415 27.6051 146.154 32.1338C161.894 36.6624 171.439 53.2157 167.474 69.1065L166.967 71.1382C162.721 88.151 145.62 98.0123 128.769 93.1638L102.282 85.5429L110.476 52.7067Z" stroke="black" stroke-width="6.55278"/>
<path d="M99.4315 49.5288C103.397 33.638 93.8518 17.0847 78.1123 12.556C62.3728 8.02734 46.399 17.2382 42.4337 33.129L41.9267 35.1607C37.6815 52.1737 47.9004 69.8958 64.7514 74.7443L91.2378 82.3652L99.4315 49.5288Z" stroke="black" stroke-width="6.55278"/>
<path d="M111.716 106.412C113.658 102.444 114.629 100.461 114.172 98.6652C114.026 98.0875 113.779 97.5381 113.444 97.043C112.404 95.5046 110.266 94.8894 105.99 93.6591C102.452 92.6411 100.683 92.1321 99.2151 92.6839C98.7385 92.8631 98.2951 93.1188 97.9013 93.4415C96.6886 94.4351 96.243 96.2211 95.3516 99.7931L76.448 175.55C76.3621 175.894 76.5688 176.252 76.9097 176.35C77.2011 176.434 77.5042 176.301 77.6365 176.03L111.716 106.412Z" fill="black" fill-opacity="0.1"/>
<path d="M104.583 120.572L77.6356 176.029C77.5038 176.3 77.2006 176.434 76.9089 176.35V176.35C76.5685 176.252 76.3621 175.894 76.4478 175.551L95.3516 99.7931C96.243 96.2211 96.6886 94.4351 97.9013 93.4415C98.2951 93.1188 98.7385 92.8631 99.2151 92.6839C100.683 92.1321 102.452 92.6411 105.99 93.6591V93.6591C110.266 94.8894 112.404 95.5046 113.444 97.043C113.779 97.5381 114.026 98.0875 114.172 98.6652C114.629 100.461 113.658 102.444 111.716 106.412L106.713 116.632" stroke="black" stroke-width="1.6382" stroke-linecap="round"/>
<path d="M72.9945 95.1704C73.1843 92.4837 73.2793 91.1403 73.6965 90.1471C74.6378 87.9066 76.7421 86.4239 79.1556 86.3007C80.2255 86.2461 81.5118 86.6163 84.0846 87.3565C86.2833 87.9892 87.3827 88.3055 88.2088 88.837C90.0665 90.0324 91.2441 92.0746 91.348 94.2812C91.3942 95.2624 91.1173 96.3724 90.5633 98.5922L67.4585 191.186C67.3739 191.524 67.0334 191.721 66.6979 191.624C66.4032 191.539 66.2043 191.253 66.226 190.946L72.9945 95.1704Z" fill="black" fill-opacity="0.1"/>
<path d="M81.2106 136.074L67.4585 191.186C67.3739 191.524 67.0334 191.721 66.6979 191.624V191.624C66.4032 191.539 66.2043 191.253 66.226 190.946L72.9945 95.1704C73.1843 92.4837 73.2793 91.1403 73.6965 90.1471C74.6378 87.9066 76.7421 86.4239 79.1556 86.3007C80.2255 86.2461 81.5118 86.6163 84.0846 87.3565V87.3565C86.2833 87.9892 87.3827 88.3055 88.2088 88.837C90.0665 90.0324 91.2441 92.0746 91.348 94.2812C91.3942 95.2624 91.1173 96.3724 90.5633 98.5922L83.0036 128.888M81.9333 133.177L82.1453 132.328" stroke="black" stroke-width="1.6382" stroke-linecap="round"/>
</svg>
